<svg xmlns="http://www.w3.org/2000/svg" viewBox="0 0 100 100"><path d="M74.23 37.134c0-.666.545-1.21 1.21-1.21h14.487c.665 0 1.21.544 1.21 1.21v.71c0 .665-.545 1.21-1.21 1.21H75.44c-.665 0-1.21-.545-1.21-1.21v-.71zM41.892 54.326l.02-2.98 6.7-.673v3.636l1.993.012v2.596l4.84-.003c.67 0 1.21.542 1.21 1.21v1.194c0 .667.542 1.21 1.21 1.21l19.9-.03c-10.77-2.007-15.814-7.286-18.533-10.13-.65-.68-1.162-1.218-1.586-1.545-.854-.657-1.64-.942-2.32-.84-.772.116-1.183.684-1.2.707l-.995-.686c.028-.04.7-1.008 1.988-1.212 1.035-.167 2.133.196 3.268 1.073.495.383 1.036.948 1.72 1.664C63.424 53 70.36 60.23 87.49 60.094l.003.36 4.1-.007c.67 0 1.21.542 1.21 1.21v6.63c0 .668-.54 1.21-1.21 1.21H8.407c-.67 0-1.21-.542-1.21-1.21v-6.51c0-.668.54-1.21 1.21-1.21l1.984-.02c.67 0 1.21-.54 1.21-1.21l-.02-1.212c0-.67.542-1.21 1.21-1.21l27.127.002V54.32l1.975.006z"/><path d="M21.768 51l-7.09.993c-.65.15-1.3-.254-1.45-.904l-.102-.66c-.15-.65.255-1.3.906-1.45l8.96-1.99c1.013-.904 2.56-1.482 4.297-1.482.57 0 1.11.063 1.606.18l42.87-9.4c.65-.15 1.3.256 1.45.906l.094.574c.15.65-.38 1.293-1.032 1.443l-22.323 7.83-17.5 2.45v6.596H21.767V51m5.316-3.326c-.334 0-.604.27-.604.604 0 .335.27.605.604.605.336 0 .606-.27.606-.605 0-.334-.27-.604-.606-.604zM38.994 37.827c-.15-.652.255-1.302.907-1.452l10.1-1.62c.653-.15 1.302.256 1.452.907l.086.26c.15.65-.254 1.3-.907 1.45l-3.833.644v2.852l-3.07.528v-2.95l-3.23.522c-.653.15-1.303-.256-1.453-.908l-.05-.233z"/></svg>
